<svg xmlns="http://www.w3.org/2000/svg" width="925.188" height="523.48" viewBox="0 0 925.188 523.48">
  <g id="グループ_1444" data-name="グループ 1444" transform="translate(-497.713 -2552.519)">
    <g id="グループ_19" data-name="グループ 19">
      <line id="線_21" data-name="線 21" y1="144" x2="505" transform="translate(722.5 2553)" fill="none" stroke="#707070" stroke-width="1"/>
      <rect id="長方形_8" data-name="長方形 8" width="248" height="110" transform="translate(836 2566)" fill="#fff"/>
      <text id="SERVICE" transform="translate(841 2618)" fill="#343434" font-size="50" font-family="SourceHanSerif-Bold, Source Han Serif" font-weight="700" letter-spacing="0.05em"><tspan x="0" y="0">SERVICE</tspan></text>
      <text id="事業内容" transform="translate(900 2688)" fill="#343434" font-size="30" font-family="SourceHanSerif-Bold, Source Han Serif" font-weight="700"><tspan x="0" y="0">事業内容</tspan></text>
    </g>
    <g id="グループ_11" data-name="グループ 11" transform="translate(119.614 62.654)">
      <g id="グループ_10" data-name="グループ 10" transform="translate(378.5 2943.266)">
        <line id="線_10" data-name="線 10" y1="37.971" x2="28.317" transform="translate(292.183 21.238)" fill="none" stroke="#707070" stroke-width="1"/>
        <line id="線_20" data-name="線 20" x1="28.317" y1="37.971" transform="translate(0 21.238)" fill="none" stroke="#707070" stroke-width="1"/>
        <text id="Internet" transform="translate(159.5 58.08)" fill="#343434" font-size="54" font-family="Helvetica" letter-spacing="0.1em"><tspan x="-110.46" y="0">Internet</tspan></text>
      </g>
      <g id="グループ_9" data-name="グループ 9" transform="translate(463.573 2704.5)">
        <path id="パス_5" data-name="パス 5" d="M1827.343,2030.2c-8.275,9.611-16.376,25.228-16.376,49.482" transform="translate(-1772.135 -2016.68)" fill="none" stroke="#344154" stroke-linecap="round" stroke-linejoin="round" stroke-width="3"/>
        <path id="パス_6" data-name="パス 6" d="M1853.436,2049c-34.795,0-43.8-18.247-43.8-18.247" transform="translate(-1780.838 -2013.029)" fill="none" stroke="#344154" stroke-linecap="round" stroke-linejoin="round" stroke-width="3"/>
        <path id="パス_7" data-name="パス 7" d="M1859.273,2030.756S1850.254,2049,1815.467,2049" transform="translate(-1742.854 -2013.029)" fill="none" stroke="#344154" stroke-linecap="round" stroke-linejoin="round" stroke-width="3"/>
        <line id="線_16" data-name="線 16" y1="97.9" transform="translate(72.612 13.509)" fill="none" stroke="#344154" stroke-linecap="round" stroke-linejoin="round" stroke-width="3"/>
        <path id="パス_8" data-name="パス 8" d="M1807.074,2091.458a63,63,0,1,1,126.01.1v-.1a63,63,0,1,1-126.01,0Z" transform="translate(-1797.474 -2028.395)" fill="none" stroke="#344154" stroke-linecap="round" stroke-linejoin="round" stroke-width="3"/>
        <path id="パス_9" data-name="パス 9" d="M1818.752,2128.091c7.92-9.686,15.415-25.018,15.415-48.341v-.067c0-24.261-8.109-39.879-16.384-49.49" transform="translate(-1727.788 -2016.686)" fill="none" stroke="#344154" stroke-linecap="round" stroke-linejoin="round" stroke-width="3"/>
        <path id="パス_10" data-name="パス 10" d="M1826.382,2085.134c-7.929-9.686-15.415-25.018-15.415-48.341" transform="translate(-1772.135 -1973.729)" fill="none" stroke="#344154" stroke-linecap="round" stroke-linejoin="round" stroke-width="3"/>
        <path id="パス_11" data-name="パス 11" d="M1859.273,2058.641s-9.019-18.247-43.806-18.247" transform="translate(-1742.854 -1950.299)" fill="none" stroke="#344154" stroke-linecap="round" stroke-linejoin="round" stroke-width="3"/>
        <path id="パス_12" data-name="パス 12" d="M1809.631,2058.641s9.01-18.247,43.8-18.247" transform="translate(-1780.838 -1950.299)" fill="none" stroke="#344154" stroke-linecap="round" stroke-linejoin="round" stroke-width="3"/>
        <line id="線_17" data-name="線 17" y2="21.414" transform="translate(72.604 126.071)" fill="none" stroke="#344154" stroke-linecap="round" stroke-linejoin="round" stroke-width="3"/>
        <path id="パス_13" data-name="パス 13" d="M1844.247,2064.577v-16.54h-18.9v16.54H1812.5v18.9h44.6v-18.9Z" transform="translate(-1762.192 -1900.552)" fill="none" stroke="#344154" stroke-linecap="round" stroke-linejoin="round" stroke-width="3"/>
        <line id="線_18" data-name="線 18" x2="50.304" transform="translate(94.905 173.478)" fill="none" stroke="#344154" stroke-linecap="round" stroke-linejoin="round" stroke-width="3"/>
        <line id="線_19" data-name="線 19" x2="50.304" transform="translate(0 173.478)" fill="none" stroke="#344154" stroke-linecap="round" stroke-linejoin="round" stroke-width="3"/>
        <path id="パス_14" data-name="パス 14" d="M1830.335,2065.252a82.063,82.063,0,0,0,2.567-21.084c0-2.928-.142-5.759-.39-8.507a39.546,39.546,0,0,1-15.881,9.236v17.953A77.984,77.984,0,0,1,1830.335,2065.252Z" transform="translate(-1735.271 -1981.103)" fill="#373737" stroke="#373737" stroke-width="3"/>
        <path id="パス_15" data-name="パス 15" d="M1814.733,2065.252a82.116,82.116,0,0,1-2.567-21.084c0-2.928.142-5.759.39-8.507a39.592,39.592,0,0,0,15.881,9.236v17.953A77.98,77.98,0,0,0,1814.733,2065.252Z" transform="translate(-1764.339 -1981.103)" fill="#373737" stroke="#373737" stroke-width="3"/>
      </g>
    </g>
    <g id="グループ_12" data-name="グループ 12" transform="translate(723.5 62.654)">
      <g id="グループ_10-2" data-name="グループ 10" transform="translate(378.5 2943.266)">
        <line id="線_10-2" data-name="線 10" y1="37.971" x2="28.317" transform="translate(292.183 21.238)" fill="none" stroke="#707070" stroke-width="1"/>
        <line id="線_20-2" data-name="線 20" x1="28.317" y1="37.971" transform="translate(0 21.238)" fill="none" stroke="#707070" stroke-width="1"/>
        <text id="Sals_IT" data-name="Sals&amp;IT" transform="translate(159.5 58.08)" fill="#343434" font-size="54" font-family="Helvetica" letter-spacing="0.1em"><tspan x="-110.726" y="0">Sals&amp;IT</tspan></text>
      </g>
      <g id="グループ_18" data-name="グループ 18" transform="translate(-1594.561 682.299)">
        <line id="線_22" data-name="線 22" y2="26.919" transform="translate(2132.783 2073.187)" fill="none" stroke="#344154" stroke-linecap="round" stroke-linejoin="round" stroke-width="3"/>
        <path id="パス_16" data-name="パス 16" d="M2051.443,2040.353l8.8,8.8,8.8-8.8" transform="translate(72.536 62.294)" fill="none" stroke="#344154" stroke-linecap="round" stroke-linejoin="round" stroke-width="3"/>
        <g id="グループ_13" data-name="グループ 13" transform="translate(2163.588 2073.187)">
          <line id="線_23" data-name="線 23" x2="9.354" y2="25.242" fill="none" stroke="#344154" stroke-linecap="round" stroke-linejoin="round" stroke-width="3"/>
          <path id="パス_17" data-name="パス 17" d="M2057.832,2045.718l11.313,5.2,5.2-11.313" transform="translate(-2055.85 -2015.036)" fill="none" stroke="#344154" stroke-linecap="round" stroke-linejoin="round" stroke-width="3"/>
        </g>
        <g id="グループ_14" data-name="グループ 14" transform="translate(2083.486 2073.187)">
          <line id="線_24" data-name="線 24" x1="9.354" y2="25.242" transform="translate(9.138)" fill="none" stroke="#344154" stroke-linecap="round" stroke-linejoin="round" stroke-width="3"/>
          <path id="パス_18" data-name="パス 18" d="M2061.733,2045.718l-11.314,5.2-5.2-11.313" transform="translate(-2045.224 -2015.036)" fill="none" stroke="#344154" stroke-linecap="round" stroke-linejoin="round" stroke-width="3"/>
        </g>
        <path id="パス_19" data-name="パス 19" d="M2048.99,2058.656l24.771-14.063,24.771,14.063-24.771,14.3" transform="translate(59.022 85.653)" fill="none" stroke="#344154" stroke-linecap="round" stroke-linejoin="round" stroke-width="3"/>
        <path id="パス_20" data-name="パス 20" d="M2073.761,2089.655l-24.771-14.3v-28.6" transform="translate(59.022 97.556)" fill="none" stroke="#344154" stroke-linecap="round" stroke-miterlimit="10" stroke-width="3"/>
        <path id="パス_21" data-name="パス 21" d="M2052.8,2089.655l24.771-14.3v-28.6" transform="translate(79.987 97.556)" fill="none" stroke="#344154" stroke-linecap="round" stroke-miterlimit="10" stroke-width="3"/>
        <line id="線_25" data-name="線 25" y2="18.998" transform="translate(2132.783 2158.61)" fill="none" stroke="#344154" stroke-linecap="round" stroke-miterlimit="10" stroke-width="3"/>
        <path id="パス_22" data-name="パス 22" d="M2059.864,2058.656l24.771-14.063,24.77,14.063-24.77,14.3" transform="translate(118.938 85.653)" fill="none" stroke="#344154" stroke-linecap="round" stroke-linejoin="round" stroke-width="3"/>
        <path id="パス_23" data-name="パス 23" d="M2084.635,2089.655l-24.771-14.3v-28.6" transform="translate(118.938 97.556)" fill="none" stroke="#344154" stroke-linecap="round" stroke-miterlimit="10" stroke-width="3"/>
        <path id="パス_24" data-name="パス 24" d="M2063.669,2089.655l24.77-14.3v-28.6" transform="translate(139.903 97.556)" fill="none" stroke="#344154" stroke-linecap="round" stroke-miterlimit="10" stroke-width="3"/>
        <line id="線_26" data-name="線 26" y2="18.998" transform="translate(2203.572 2158.61)" fill="none" stroke="#344154" stroke-linecap="round" stroke-miterlimit="10" stroke-width="3"/>
        <path id="パス_25" data-name="パス 25" d="M2038.278,2058.656l24.771-14.063,24.77,14.063-24.77,14.3" transform="translate(0.001 85.653)" fill="none" stroke="#344154" stroke-linecap="round" stroke-linejoin="round" stroke-width="3"/>
        <path id="パス_26" data-name="パス 26" d="M2063.049,2089.655l-24.771-14.3v-28.6" transform="translate(0.001 97.556)" fill="none" stroke="#344154" stroke-linecap="round" stroke-miterlimit="10" stroke-width="3"/>
        <path id="パス_27" data-name="パス 27" d="M2042.084,2089.655l24.77-14.3v-28.6" transform="translate(20.965 97.556)" fill="none" stroke="#344154" stroke-linecap="round" stroke-miterlimit="10" stroke-width="3"/>
        <line id="線_27" data-name="線 27" y2="18.998" transform="translate(2063.049 2158.61)" fill="none" stroke="#344154" stroke-linecap="round" stroke-miterlimit="10" stroke-width="3"/>
        <g id="グループ_15" data-name="グループ 15" transform="translate(2067.683 2029.048)">
          <path id="パス_28" data-name="パス 28" d="M2042.8,2029.048l9.41,29.956,7.86-29.956" transform="translate(-2042.796 -2029.048)" fill="none" stroke="#344154" stroke-linecap="round" stroke-linejoin="round" stroke-width="3"/>
          <path id="パス_29" data-name="パス 29" d="M2062.72,2029.048,2053.31,2059l-7.861-29.956" transform="translate(-2028.177 -2029.048)" fill="none" stroke="#344154" stroke-linecap="round" stroke-linejoin="round" stroke-width="3"/>
        </g>
        <g id="グループ_16" data-name="グループ 16" transform="translate(2115.513 2029.048)">
          <path id="パス_30" data-name="パス 30" d="M2050.143,2029.048l9.409,29.956,7.861-29.956" transform="translate(-2050.143 -2029.048)" fill="none" stroke="#344154" stroke-linecap="round" stroke-linejoin="round" stroke-width="3"/>
          <path id="パス_31" data-name="パス 31" d="M2070.067,2029.048l-9.41,29.956-7.861-29.956" transform="translate(-2035.526 -2029.048)" fill="none" stroke="#344154" stroke-linecap="round" stroke-linejoin="round" stroke-width="3"/>
        </g>
        <g id="グループ_17" data-name="グループ 17" transform="translate(2163.34 2029.048)">
          <path id="パス_32" data-name="パス 32" d="M2057.489,2029.048,2066.9,2059l7.861-29.956" transform="translate(-2057.489 -2029.048)" fill="none" stroke="#344154" stroke-linecap="round" stroke-linejoin="round" stroke-width="3"/>
          <path id="パス_33" data-name="パス 33" d="M2077.413,2029.048,2068,2059l-7.861-29.956" transform="translate(-2042.871 -2029.048)" fill="none" stroke="#344154" stroke-linecap="round" stroke-linejoin="round" stroke-width="3"/>
        </g>
        <path id="パス_34" data-name="パス 34" d="M2071.266,2046.068l-8.975,5.1,7.594,4.795,9.323-5.382Z" transform="translate(132.306 93.792)" fill="#373737" stroke="#373737" stroke-width="3"/>
        <path id="パス_35" data-name="パス 35" d="M2060.472,2046.068l-8.976,5.1,7.595,4.795,9.323-5.382Z" transform="translate(72.828 93.792)" fill="#373737" stroke="#373737" stroke-width="3"/>
        <path id="パス_36" data-name="パス 36" d="M2049.677,2046.068l-8.975,5.1,7.594,4.795,9.322-5.382Z" transform="translate(13.35 93.792)" fill="#373737" stroke="#373737" stroke-width="3"/>
      </g>
    </g>
  </g>
</svg>
