<?xml version="1.0" encoding="utf-8"?>
<!-- Generator: Adobe Illustrator 25.3.1, SVG Export Plug-In . SVG Version: 6.00 Build 0)  -->
<svg version="1.1" id="レイヤー_1" xmlns="http://www.w3.org/2000/svg" xmlns:xlink="http://www.w3.org/1999/xlink" x="0px"
	 y="0px" viewBox="0 0 925.2 561" style="enable-background:new 0 0 925.2 561;" xml:space="preserve">
<style type="text/css">
	.st0{fill:none;stroke:#707070;}
	.st1{fill:#FFFFFF;}
	.st2{fill:#343434;}
	.st3{font-family:'SourceHanSerif-Bold-90ms-RKSJ-H';}
	.st4{font-size:50px;}
	.st5{letter-spacing:2;}
	.st6{font-size:30px;}
	.st7{font-family:'ArialMT';}
	.st8{font-size:54px;}
	.st9{letter-spacing:5;}
	.st10{fill:none;stroke:#344154;stroke-width:3;stroke-linecap:round;stroke-linejoin:round;}
	.st11{fill:#373737;stroke:#373737;stroke-width:3;}
	.st12{fill:none;stroke:#344154;stroke-width:3;stroke-linecap:round;stroke-miterlimit:10;}
</style>
<g id="グループ_1444" transform="translate(-497.713 -2552.519)">
	<g id="グループ_19">
		<line id="線_21" class="st0" x1="722.5" y1="2697" x2="1227.5" y2="2553"/>
		<rect id="長方形_8" x="836" y="2566" class="st1" width="248" height="110"/>
		<text transform="matrix(1 0 0 1 841 2618)" class="st2 st3 st4 st5">SERVICE</text>
		<text transform="matrix(1 0 0 1 900 2688)" class="st2 st3 st6">事業内容</text>
	</g>
	<g id="グループ_11" transform="translate(119.614 62.654)">
		<g id="グループ_10" transform="translate(378.5 2943.266)">
			<line id="線_10" class="st0" x1="292.2" y1="89.2" x2="320.5" y2="51.2"/>
			<line id="線_20" class="st0" x1="28.3" y1="89.2" x2="0" y2="51.2"/>
			<text transform="matrix(1 0 0 1 49.04 88.08)" class="st2 st7 st8 st9">Internet</text>
		</g>
		<g id="グループ_9" transform="translate(463.573 2704.5)">
			<path id="パス_5" class="st10" d="M55.2,63.5c-8.3,9.6-16.4,25.2-16.4,49.5"/>
			<path id="パス_6" class="st10" d="M72.6,86c-34.8,0-43.8-18.2-43.8-18.2"/>
			<path id="パス_7" class="st10" d="M116.4,67.7c0,0-9,18.2-43.8,18.2"/>
			<line id="線_16" class="st10" x1="72.6" y1="161.4" x2="72.6" y2="63.5"/>
			<path id="パス_8" class="st10" d="M9.6,113.1c0-34.8,28.3-63,63.1-63s63,28.3,63,63.1v-0.1c0,34.8-28.2,63-63,63
				S9.6,147.9,9.6,113.1z"/>
			<path id="パス_9" class="st10" d="M91,161.4c7.9-9.7,15.4-25,15.4-48.3V113c0-24.3-8.1-39.9-16.4-49.5"/>
			<path id="パス_10" class="st10" d="M54.2,161.4c-7.9-9.7-15.4-25-15.4-48.3"/>
			<path id="パス_11" class="st10" d="M116.4,158.3c0,0-9-18.2-43.8-18.2"/>
			<path id="パス_12" class="st10" d="M28.8,158.3c0,0,9-18.2,43.8-18.2"/>
			<line id="線_17" class="st10" x1="72.6" y1="176.1" x2="72.6" y2="197.5"/>
			<path id="パス_13" class="st10" d="M82.1,214v-16.5H63.2V214H50.3v18.9h44.6V214H82.1z"/>
			<line id="線_18" class="st10" x1="94.9" y1="223.5" x2="145.2" y2="223.5"/>
			<line id="線_19" class="st10" x1="0" y1="223.5" x2="50.3" y2="223.5"/>
			<path id="パス_14" class="st11" d="M95.1,134.1c1.8-6.9,2.6-14,2.6-21.1c0-2.9-0.1-5.8-0.4-8.5c-4.5,4.3-9.9,7.4-15.9,9.2v18
				C86,132.1,90.6,132.9,95.1,134.1z"/>
			<path id="パス_15" class="st11" d="M50.4,134.1c-1.8-6.9-2.6-14-2.6-21.1c0-2.9,0.1-5.8,0.4-8.5c4.5,4.3,9.9,7.4,15.9,9.2v18
				C59.5,132.1,54.9,132.9,50.4,134.1z"/>
		</g>
	</g>
	<g id="グループ_12" transform="translate(723.5 62.654)">
		<g id="グループ_10-2" transform="translate(378.5 2943.266)">
			<line id="線_10-2" class="st0" x1="292.2" y1="89.2" x2="320.5" y2="51.2"/>
			<line id="線_20-2" class="st0" x1="28.3" y1="89.2" x2="0" y2="51.2"/>
			<text transform="matrix(1 0 0 1 48.774 88.08)" class="st2 st7 st8 st9">Sals&amp;IT</text>
		</g>
		<g id="グループ_18" transform="translate(-1594.561 682.299)">
			<line id="線_22" class="st10" x1="2132.8" y1="2139.2" x2="2132.8" y2="2166.1"/>
			<path id="パス_16" class="st10" d="M2124,2168.6l8.8,8.8l8.8-8.8"/>
			<g id="グループ_13" transform="translate(2163.588 2073.187)">
				<line id="線_23" class="st10" x1="0" y1="66" x2="9.4" y2="91.2"/>
				<path id="パス_17" class="st10" d="M2,96.7l11.3,5.2l5.2-11.3"/>
			</g>
			<g id="グループ_14" transform="translate(2083.486 2073.187)">
				<line id="線_24" class="st10" x1="18.5" y1="66" x2="9.1" y2="91.2"/>
				<path id="パス_18" class="st10" d="M16.5,96.7l-11.3,5.2L0,90.6"/>
			</g>
			<path id="パス_19" class="st10" d="M2108,2210.3l24.8-14.1l24.8,14.1l-24.8,14.3"/>
			<path id="パス_20" class="st12" d="M2132.8,2253.2l-24.8-14.3v-28.6"/>
			<path id="パス_21" class="st12" d="M2132.8,2253.2l24.8-14.3v-28.6"/>
			<line id="線_25" class="st12" x1="2132.8" y1="2224.6" x2="2132.8" y2="2243.6"/>
			<path id="パス_22" class="st10" d="M2178.8,2210.3l24.8-14.1l24.8,14.1l-24.8,14.3"/>
			<path id="パス_23" class="st12" d="M2203.6,2253.2l-24.8-14.3v-28.6"/>
			<path id="パス_24" class="st12" d="M2203.6,2253.2l24.8-14.3v-28.6"/>
			<line id="線_26" class="st12" x1="2203.6" y1="2224.6" x2="2203.6" y2="2243.6"/>
			<path id="パス_25" class="st10" d="M2038.3,2210.3l24.8-14.1l24.8,14.1l-24.8,14.3"/>
			<path id="パス_26" class="st12" d="M2063.1,2253.2l-24.8-14.3v-28.6"/>
			<path id="パス_27" class="st12" d="M2063,2253.2l24.8-14.3v-28.6"/>
			<line id="線_27" class="st12" x1="2063" y1="2224.6" x2="2063" y2="2243.6"/>
			<g id="グループ_15" transform="translate(2067.683 2029.048)">
				<path id="パス_28" class="st10" d="M0,66l9.4,30l7.9-30"/>
				<path id="パス_29" class="st10" d="M34.5,66l-9.4,30l-7.9-30"/>
			</g>
			<g id="グループ_16" transform="translate(2115.513 2029.048)">
				<path id="パス_30" class="st10" d="M0,66l9.4,30l7.9-30"/>
				<path id="パス_31" class="st10" d="M34.5,66l-9.4,30l-7.9-30"/>
			</g>
			<g id="グループ_17" transform="translate(2163.34 2029.048)">
				<path id="パス_32" class="st10" d="M0,66l9.4,30l7.9-30"/>
				<path id="パス_33" class="st10" d="M34.5,66l-9.4,30l-7.9-30"/>
			</g>
			<path id="パス_34" class="st11" d="M2203.6,2205.9l-9,5.1l7.6,4.8l9.3-5.4L2203.6,2205.9z"/>
			<path id="パス_35" class="st11" d="M2133.3,2205.9l-9,5.1l7.6,4.8l9.3-5.4L2133.3,2205.9z"/>
			<path id="パス_36" class="st11" d="M2063,2205.9l-9,5.1l7.6,4.8l9.3-5.4L2063,2205.9z"/>
		</g>
	</g>
</g>
</svg>
